<svg xmlns="http://www.w3.org/2000/svg" xmlns:xlink="http://www.w3.org/1999/xlink" fill="none" viewBox="0 0 1235 650">
  <g clip-path="url(#a)">
    <path fill="#B31942" d="M0 0h1235v650H0"/>
    <path fill="#000" d="M0 75h1235zm1235 100H0zM0 275h1235zm1235 100H0zM0 475h1235zm1235 100H0z"/>
    <path stroke="#fff" stroke-width="50" d="M0 75h1235m0 100H0m0 100h1235m0 100H0m0 100h1235m0 100H0"/>
    <path fill="#0A3161" d="M0 0h494v350H0"/>
    <path fill="#fff" d="m41.17 15 11.755 36.18-30.777-22.36h38.043L29.414 51.18zm0 70 11.755 36.18-30.777-22.36h38.043l-30.777 22.36zm0 70 11.755 36.18-30.777-22.36h38.043l-30.777 22.36zm0 70 11.755 36.18-30.777-22.36h38.043l-30.777 22.36zm0 70 11.755 36.18-30.777-22.36h38.043l-30.777 22.36zM82.334 50l11.755 36.18-30.776-22.36h38.042L70.578 86.18zm0 70 11.755 36.18-30.776-22.36h38.042l-30.777 22.36zm0 70 11.755 36.18-30.776-22.36h38.042l-30.777 22.36zm0 70 11.755 36.18-30.776-22.36h38.042l-30.777 22.36zm41.172-245 11.755 36.18-30.777-22.36h38.043L111.75 51.18zm0 70 11.755 36.18-30.777-22.36h38.043l-30.777 22.36zm0 70 11.755 36.18-30.777-22.36h38.043l-30.777 22.36zm0 70 11.755 36.18-30.777-22.36h38.043l-30.777 22.36zm0 70 11.755 36.18-30.777-22.36h38.043l-30.777 22.36zM164.67 50l11.755 36.18-30.777-22.36h38.043l-30.777 22.36zm0 70 11.755 36.18-30.777-22.36h38.043l-30.777 22.36zm0 70 11.755 36.18-30.777-22.36h38.043l-30.777 22.36zm0 70 11.755 36.18-30.777-22.36h38.043l-30.777 22.36zm41.164-245 11.755 36.18-30.777-22.36h38.043l-30.777 22.36zm0 70 11.755 36.18-30.777-22.36h38.043l-30.777 22.36zm0 70 11.755 36.18-30.777-22.36h38.043l-30.777 22.36zm0 70 11.755 36.18-30.777-22.36h38.043l-30.777 22.36zm0 70 11.755 36.18-30.777-22.36h38.043l-30.777 22.36zm41.164-245 11.755 36.18-30.776-22.36h38.042l-30.777 22.36zm0 70 11.755 36.18-30.776-22.36h38.042l-30.777 22.36zm0 70 11.755 36.18-30.776-22.36h38.042l-30.777 22.36zm0 70 11.755 36.18-30.776-22.36h38.042l-30.777 22.36zM288.17 15l11.755 36.18-30.777-22.36h38.043l-30.777 22.36zm0 70 11.755 36.18-30.777-22.36h38.043l-30.777 22.36zm0 70 11.755 36.18-30.777-22.36h38.043l-30.777 22.36zm0 70 11.755 36.18-30.777-22.36h38.043l-30.777 22.36zm0 70 11.755 36.18-30.777-22.36h38.043l-30.777 22.36zm41.164-245 11.755 36.18-30.777-22.36h38.043l-30.777 22.36zm0 70 11.755 36.18-30.777-22.36h38.043l-30.777 22.36zm0 70 11.755 36.18-30.777-22.36h38.043l-30.777 22.36zm0 70 11.755 36.18-30.777-22.36h38.043l-30.777 22.36zm41.172-245 11.755 36.18-30.777-22.36h38.043L358.75 51.18zm0 70 11.755 36.18-30.777-22.36h38.043l-30.777 22.36zm0 70 11.755 36.18-30.777-22.36h38.043l-30.777 22.36zm0 70 11.755 36.18-30.777-22.36h38.043l-30.777 22.36zm0 70 11.755 36.18-30.777-22.36h38.043l-30.777 22.36zM411.67 50l11.755 36.18-30.777-22.36h38.043l-30.777 22.36zm0 70 11.755 36.18-30.777-22.36h38.043l-30.777 22.36zm0 70 11.755 36.18-30.777-22.36h38.043l-30.777 22.36zm0 70 11.755 36.18-30.777-22.36h38.043l-30.777 22.36zm41.164-245 11.755 36.18-30.777-22.36h38.043l-30.777 22.36zm0 70 11.755 36.18-30.777-22.36h38.043l-30.777 22.36zm0 70 11.755 36.18-30.777-22.36h38.043l-30.777 22.36zm0 70 11.755 36.18-30.777-22.36h38.043l-30.777 22.36zm0 70 11.755 36.18-30.777-22.36h38.043l-30.777 22.36z"/>
  </g>
  <defs>
    <clipPath id="a">
      <rect width="1235" height="650" fill="#fff" rx="50"/>
    </clipPath>
  </defs>
</svg>
