<svg xml:space="preserve" xmlns="http://www.w3.org/2000/svg" version="1.1" viewBox="0 0 374 221" fill-rule="evenodd" clip-rule="evenodd" stroke-linejoin="round" stroke-miterlimit="2">
  <path d="M105.235 64.999c0-24.587-20.149-43.175-43.416-43.175-24.348 0-43.296 18.588-43.296 43.175 0 24.588 18.949 43.176 43.296 43.176 7.434 0 14.391-1.681 20.388-4.797l13.071 13.071 14.031-12.353-12.71-12.834c5.396-7.194 8.635-16.191 8.635-26.263h.001zM61.819 91.865c-14.633 0-23.148-11.036-23.148-26.865 0-15.231 8.515-26.864 23.148-26.864 14.752 0 23.267 11.633 23.267 26.864 0 15.83-8.515 26.865-23.267 26.865zm97.9-12.594c0 8.876-4.319 12.594-10.674 12.594-6.355 0-10.795-3.718-10.795-12.594V47.008h-20.149v32.263c0 17.511 13.312 28.904 30.944 28.904 17.632 0 30.823-11.393 30.823-28.904V47.008h-20.149v32.263zm100.784 10.675c-4.079 0-6.84-2.039-6.84-6.716V62.001h13.793V47.008h-13.793v-19.19h-20.146v19.19h-8.398v14.993h8.398v22.546c0 14.633 9.715 23.027 23.027 23.027 4.56 0 9.956-.959 13.192-2.517l-2.4-16.191c-1.798.599-4.313 1.08-6.833 1.08z" fill-rule="nonzero"/>
  <path d="M280.066 142.537h20.152v59.969h-20.152z"/>
  <path d="M352.757 184.395c-1.798.598-4.313 1.08-6.833 1.08-4.079 0-6.84-2.039-6.84-6.716v-21.228h13.793v-14.994h-13.793v-19.189h-20.146v19.189h-8.397v14.994h8.397v22.545c0 14.633 9.715 23.027 23.027 23.027 4.56 0 9.956-.959 13.192-2.517l-2.4-16.191zM194.645 47.008h20.146v59.969h-20.146zm38.018 108.123l29.476-34.406c-2.005.221-3.935.364-5.594.364-6.231 0-11.893-1.295-16.828-3.608l-24.204 31.894-.722-.237v-28.706h-20.146v82.075h20.146v-26.625l4.56-5.278 24.465 31.902h25.909l-37.062-47.374v-.001z" fill-rule="nonzero"/>
  <circle r="11.854" cy="28.782" cx="204.718"/>
  <circle r="11.854" cy="124.312" cx="290.142"/>
</svg>
